<svg width="16" height="16" viewBox="0 0 16 16" fill="none" xmlns="http://www.w3.org/2000/svg">
<path d="M10.1 5.60012C9.58899 5.59837 9.08269 5.69738 8.61003 5.8915C8.13738 6.08563 7.70763 6.37104 7.3454 6.73142C6.98316 7.0918 6.69554 7.52007 6.49899 7.99172C6.30244 8.46337 6.20082 8.96915 6.19995 9.48012V13.4001C6.19995 13.5593 6.26317 13.7119 6.37569 13.8244C6.48821 13.9369 6.64082 14.0001 6.79995 14.0001H8.19995C8.35908 14.0001 8.51169 13.9369 8.62421 13.8244C8.73674 13.7119 8.79995 13.5593 8.79995 13.4001V9.48012C8.79982 9.29839 8.83799 9.11867 8.91197 8.95268C8.98596 8.78668 9.09409 8.63815 9.22933 8.51675C9.36456 8.39535 9.52387 8.30381 9.69685 8.24811C9.86984 8.19241 10.0526 8.17378 10.2333 8.19345C10.5573 8.23426 10.8551 8.39256 11.0701 8.63833C11.2851 8.88409 11.4025 9.20023 11.4 9.52679V13.4001C11.4 13.5593 11.4632 13.7119 11.5757 13.8244C11.6882 13.9369 11.8408 14.0001 12 14.0001H13.4C13.5591 14.0001 13.7117 13.9369 13.8242 13.8244C13.9367 13.7119 14 13.5593 14 13.4001V9.48012C13.9991 8.96915 13.8975 8.46337 13.7009 7.99172C13.5044 7.52007 13.2167 7.0918 12.8545 6.73142C12.4923 6.37104 12.0625 6.08563 11.5899 5.8915C11.1172 5.69738 10.6109 5.59837 10.1 5.60012Z" fill="#AAAAAA"/>
<path d="M4.4 6.2002H2.6C2.26863 6.2002 2 6.46882 2 6.8002V13.4002C2 13.7316 2.26863 14.0002 2.6 14.0002H4.4C4.73137 14.0002 5 13.7316 5 13.4002V6.8002C5 6.46882 4.73137 6.2002 4.4 6.2002Z" fill="#AAAAAA"/>
<path d="M3.5 5C4.32843 5 5 4.32843 5 3.5C5 2.67157 4.32843 2 3.5 2C2.67157 2 2 2.67157 2 3.5C2 4.32843 2.67157 5 3.5 5Z" fill="#AAAAAA"/>
</svg>
