<svg width="10" height="12" viewBox="0 0 10 12" fill="none" xmlns="http://www.w3.org/2000/svg">
<path d="M4.99993 5.41667C5.46142 5.41667 5.91254 5.27982 6.29626 5.02343C6.67997 4.76704 6.97904 4.40262 7.15565 3.97626C7.33225 3.5499 7.37846 3.08075 7.28843 2.62812C7.1984 2.1755 6.97617 1.75974 6.64984 1.43342C6.32352 1.1071 5.90776 0.884868 5.45514 0.794835C5.00252 0.704803 4.53336 0.751011 4.107 0.927615C3.68064 1.10422 3.31622 1.40329 3.05983 1.787C2.80344 2.17072 2.6666 2.62184 2.6666 3.08333C2.6666 3.70217 2.91243 4.29567 3.35001 4.73325C3.7876 5.17084 4.38109 5.41667 4.99993 5.41667Z" fill="#F25822"/>
<path d="M8.49993 11.2499C8.65464 11.2499 8.80301 11.1885 8.91241 11.0791C9.0218 10.9697 9.08326 10.8213 9.08326 10.6666C9.08326 9.58362 8.65305 8.54501 7.88728 7.77923C7.12151 7.01346 6.0829 6.58325 4.99993 6.58325C3.91696 6.58325 2.87835 7.01346 2.11258 7.77923C1.3468 8.54501 0.916595 9.58362 0.916595 10.6666C0.916595 10.8213 0.978054 10.9697 1.08745 11.0791C1.19685 11.1885 1.34522 11.2499 1.49993 11.2499H8.49993Z" fill="#F25822"/>
</svg>
